<?xml version="1.0" encoding="utf-8"?>
<!-- Generator: Adobe Illustrator 23.1.0, SVG Export Plug-In . SVG Version: 6.00 Build 0)  -->
<svg version="1.1" id="Layer_2" xmlns="http://www.w3.org/2000/svg" xmlns:xlink="http://www.w3.org/1999/xlink" x="0px" y="0px"
	 width="1000px" height="296.0701599px" viewBox="0 0 1000 296.0701599" enable-background="new 0 0 1000 296.0701599"
	 xml:space="preserve">
<polygon points="812.8262329,198.8348694 794.5401611,198.8348694 794.5401611,113.8754349 773.7227783,118.6581421 
	773.7227783,103.3256302 799.3233643,97.417923 812.8272095,97.417923 "/>
<polygon points="913.2783813,198.8338928 901.0410767,198.8338928 901.0410767,152.5555878 860.9522095,152.5555878 
	860.9522095,198.8338928 848.7139282,198.8338928 848.7139282,97.4159698 860.9522095,97.4159698 860.9522095,141.5839081 
	901.0410767,141.5839081 901.0410767,97.4159698 913.2783813,97.4159698 "/>
<path d="M999.9990234,148.1976776c0,7.2211914-0.84375,13.925293-2.5322266,20.1147461
	c-1.59375,6.1894379-4.1259766,11.5341644-7.5957031,16.0361176c-3.375,4.5009766-7.7832031,8.0634766-13.2216797,10.6894531
	c-5.3457031,2.5322266-11.7685547,3.7978516-19.2705078,3.7978516h-24.7567749V97.417923h23.3505249
	c7.7822266,0,14.4404297,1.1723633,19.9736328,3.5166016c5.5332031,2.3442307,10.0810547,5.7202072,13.6445313,10.1279221
	c3.5634766,4.4072266,6.1884766,9.7524338,7.8769531,16.0356369c1.6875,6.2827148,2.5322266,13.315918,2.5322266,21.0991058
	L999.9990234,148.1976776z M987.3398438,148.1976776c0-4.7827148-0.421875-9.5180511-1.2666016-14.207016
	c-0.75-4.7822266-2.15625-9.0493164-4.2197266-12.800293c-1.96875-3.8447266-4.6884766-6.9389572-8.1582031-9.2836838
	c-3.3759766-2.3442383-7.6425781-3.5166016-12.8007813-3.5166016H944.859375v79.7563095h15.0507813
	c5.6269531,0,10.2216797-1.265625,13.7851563-3.7978516s6.3291016-5.7675781,8.2988281-9.7060547
	c2.0634766-3.9384613,3.4697266-8.2519379,4.2197266-12.9404144s1.1259766-9.1894531,1.1259766-13.503418V148.1976776z"/>
<path d="M148.0306854,0C66.2738953,0,0,66.273407,0,148.0306854s66.2738953,148.0394745,148.0306854,148.0394745
	s148.0394745-66.2821808,148.0394745-148.0394745S229.7874908,0,148.0306854,0z M147.962326,18.2524319
	c71.7660828,0,129.9413605,58.1752625,129.9413605,129.9413452S219.7284088,278.1346436,147.962326,278.1346436
	c-71.7655869,0-129.9408569-58.1747894-129.9408569-129.9408722S76.1967392,18.2524319,147.962326,18.2524319z"/>
<path d="M74.2548447,97.43013v100.7855988h41.0097504c18.6391525,0,32.9614029-11.6376953,32.9614029-30.0683441
	c0-16.2558594-12.6889496-22.456543-12.6889496-22.456543s9.7377777-6.2187347,9.7377777-20.0488129
	c0-16.0639572-12.6826019-28.2133636-31.3881607-28.2133636L74.2548447,97.43013z M96.9345245,117.1288528h12.1162033
	c8.6118088,0,12.369133,4.4267502,12.369133,9.8935471c0,5.9350586-4.2543869,9.6796875-11.7963791,9.6796875H96.9345245
	V117.1288528z M96.9345245,156.8964081h12.1162033c8.6118088,0,12.369133,4.4267578,12.369133,9.8935547
	c0,5.9345551-4.2543869,9.6796722-11.7963791,9.6796722H96.9345245V156.8964081z"/>
<polygon points="178.6405334,197.9002991 178.6405334,120.5429077 155.9603729,120.5429077 155.9603729,97.2416534 
	226.4842682,97.2416534 226.4842682,120.5429077 202.872467,120.5429077 202.872467,197.9002991 "/>
<path d="M325.0628357,173.7264709v21.7158203c0,0,13.2885742,5.3261719,29.1864929,5.3261719
	c22.9804688,0,37.8388672-10.2412109,37.8388672-32.1894379c0-30.1274261-41.262207-29.4745941-41.262207-43.3368988
	c0-4.878418,4.0341797-7.2255859,12.6328125-7.2255859c11.2802734,0,23.3579102,5.1533203,23.3579102,5.1533203v-22.0551605
	c0,0-9.9072266-4.4370117-25.222168-4.4370117c-18.4052429,0-36.8569031,8.7880783-36.8569031,30.0444183
	c0,31.9936371,41.023407,28.5346527,41.023407,44.3715668c0,6.2587738-4.315918,8.6035004-13.5419922,8.6035004
	c-13.3246765,0-27.1567078-5.9707031-27.1567078-5.9707031H325.0628357z"/>
<path d="M403.446106,97.8905792v100.9442902h25.1083679v-32.9130707h4.8598633
	c27.043457,0,37.914032-15.3769531,37.914032-34.7123871c0-23.6328049-17.0619812-33.3188324-34.969696-33.3188324H403.446106z
	 M428.5544739,118.2494507h4.4111328c6.8789063,0,13.9238281,2.0317383,13.9238281,13.1635742
	c0,10.3701019-5.4980469,14.1498871-13.9238281,14.1498871h-4.4111328V118.2494507z"/>
<path d="M520.0539551,96.7025909c-23.4746094,0-40.2006836,16.9311447-40.2006836,52.0644226
	c0,29.7905121,10.2260742,51.7748871,39.9282227,51.7748871c27.5751953,0,39.9140625-23.8652344,39.9140625-52.2446136
	c0-37.3569107-17.0957031-51.594696-39.6425781-51.594696H520.0539551z M520.0412598,118.281189
	c12.0878906,0,14.0527344,14.8442383,14.0527344,30.4618988c0,16.4111328-2.8027344,30.4833832-14.3945313,30.4833832
	c-12.9824219,0-14.1601563-18.1581879-14.1601563-30.891098c0-14.4169769,2.1914063-30.0546722,14.5029297-30.0546722
	L520.0412598,118.281189z"/>
<path d="M639.5206909,130.180603c0-21.1992111-14.5527344-32.2910004-34.8847656-32.2910004h-32.9121094v100.9442902h25.1083984
	v-35.6279144h4.0673828l19.3447266,35.6279144h26.8056641l-24.4609375-41.238266
	C631.9181519,153.4559784,639.5206909,144.9647675,639.5206909,130.180603z M596.8322144,118.2484741h4.4111328
	c6.8789063,0,13.9238281,2.6704102,13.9238281,12.3457031c0,8.527832-5.4980469,12.5776215-13.9238281,12.6357269h-4.4111328
	V118.2484741z"/>
<polygon points="671.1378784,198.8348694 671.1378784,118.0805054 647.8947144,118.0805054 647.8947144,97.8915558 
	719.4893799,97.8915558 719.4893799,118.0805054 696.2471924,118.0805054 696.2471924,198.8348694 "/>
</svg>
