<?xml version="1.0" encoding="UTF-8" standalone="no"?>
<svg
   xmlns:dc="http://purl.org/dc/elements/1.1/"
   xmlns:cc="http://creativecommons.org/ns#"
   xmlns:rdf="http://www.w3.org/1999/02/22-rdf-syntax-ns#"
   xmlns:svg="http://www.w3.org/2000/svg"
   xmlns="http://www.w3.org/2000/svg"
   xmlns:xlink="http://www.w3.org/1999/xlink"
   xmlns:sodipodi="http://sodipodi.sourceforge.net/DTD/sodipodi-0.dtd"
   xmlns:inkscape="http://www.inkscape.org/namespaces/inkscape"
   version="1.1"
   id="Layer_1"
   x="0px"
   y="0px"
   width="661"
   height="334"
   viewBox="0 0 660.99997 334"
   enable-background="new 0 0 1190.55 841.89"
   xml:space="preserve"><defs
   id="defs109">
	<defs
   id="defs78">
		<path
   d="m 690.138,741.369 h 0.927 c 0.45,0 0.693,0.207 0.729,0.621 0.026,0.424 -0.063,1.026 -0.298,1.81 -0.161,0.558 -0.351,1.053 -0.566,1.458 -0.405,0.747 -0.847,1.125 -1.314,1.125 h -0.918 l 1.44,-5.014 z m -0.586,-1.319 -2.201,7.637 v 0.009 h 2.058 c 0.721,0 1.387,-0.477 2.007,-1.422 0.459,-0.711 0.838,-1.575 1.125,-2.592 0.117,-0.396 0.217,-0.819 0.279,-1.26 0.063,-0.441 0.072,-0.855 0.019,-1.233 -0.072,-0.477 -0.252,-0.801 -0.531,-0.972 -0.155,-0.099 -0.356,-0.152 -0.614,-0.167 h -2.142 z"
   id="SVGID_4_"
   inkscape:connector-curvature="0" />
	</defs>
	<clipPath
   id="SVGID_5_">
		<use
   id="use82"
   overflow="visible"
   xlink:href="#SVGID_4_"
   style="overflow:visible"
   x="0"
   y="0"
   width="1190.55"
   height="841.89001" />
	</clipPath>
	
		<linearGradient
   gradientTransform="matrix(0,6.4504,6.4504,0,-4736.8394,742.1327)"
   y2="841.34131"
   x2="1"
   y1="841.34131"
   x1="0"
   gradientUnits="userSpaceOnUse"
   id="SVGID_6_">
		<stop
   id="stop85"
   style="stop-color:#FFFFFF"
   offset="0" />
		<stop
   id="stop87"
   style="stop-color:#FCFCFC"
   offset="0.1777" />
		<stop
   id="stop89"
   style="stop-color:#F3F3F3"
   offset="0.31" />
		<stop
   id="stop91"
   style="stop-color:#E2E2E2"
   offset="0.4275" />
		<stop
   id="stop93"
   style="stop-color:#CCCCCC"
   offset="0.5366" />
		<stop
   id="stop95"
   style="stop-color:#AEAEAE"
   offset="0.6397" />
		<stop
   id="stop97"
   style="stop-color:#8A8A8A"
   offset="0.7384" />
		<stop
   id="stop99"
   style="stop-color:#5F5F5F"
   offset="0.8336" />
		<stop
   id="stop101"
   style="stop-color:#2F2F2F"
   offset="0.9238" />
		<stop
   id="stop103"
   style="stop-color:#000000"
   offset="1" />
	</linearGradient>
	

	<defs
   id="defs51">
		<polygon
   points="683.063,740.05 680.877,747.696 682.065,747.696 683.046,744.276 685.251,744.276 684.27,747.696 685.458,747.696 687.649,740.062 687.649,740.05 686.456,740.05 685.629,742.962 683.424,742.962 684.251,740.05 "
   id="SVGID_1_" />
	</defs>
	<clipPath
   id="SVGID_2_">
		<use
   id="use55"
   overflow="visible"
   xlink:href="#SVGID_1_"
   style="overflow:visible"
   x="0"
   y="0"
   width="1190.55"
   height="841.89001" />
	</clipPath>
	
		<linearGradient
   gradientTransform="matrix(0,6.4504,6.4504,0,-4742.0815,742.1327)"
   y2="841.24561"
   x2="1"
   y1="841.24561"
   x1="0"
   gradientUnits="userSpaceOnUse"
   id="SVGID_3_">
		<stop
   id="stop58"
   style="stop-color:#FFFFFF"
   offset="0" />
		<stop
   id="stop60"
   style="stop-color:#F9F9F9"
   offset="0.0962" />
		<stop
   id="stop62"
   style="stop-color:#E9E9E9"
   offset="0.2204" />
		<stop
   id="stop64"
   style="stop-color:#CFCFCF"
   offset="0.3601" />
		<stop
   id="stop66"
   style="stop-color:#A9A9A9"
   offset="0.5111" />
		<stop
   id="stop68"
   style="stop-color:#7A7A7A"
   offset="0.6712" />
		<stop
   id="stop70"
   style="stop-color:#404040"
   offset="0.8362" />
		<stop
   id="stop72"
   style="stop-color:#000000"
   offset="1" />
	</linearGradient>

<linearGradient
   inkscape:collect="always"
   xlink:href="#SVGID_3_"
   id="linearGradient3166"
   gradientUnits="userSpaceOnUse"
   gradientTransform="matrix(0,6.4504,6.4504,0,-4742.0815,742.1327)"
   x1="0"
   y1="841.24561"
   x2="1"
   y2="841.24561" /><linearGradient
   inkscape:collect="always"
   xlink:href="#SVGID_6_"
   id="linearGradient3168"
   gradientUnits="userSpaceOnUse"
   gradientTransform="matrix(0,6.4504,6.4504,0,-4736.8394,742.1327)"
   x1="0"
   y1="841.34131"
   x2="1"
   y2="841.34131" /></defs>
<polygon
   style="fill:#005aa2"
   id="polygon5"
   points="625.271,730.583 628.599,730.583 630.734,728.159 630.735,728.159 630.735,728.161 630.735,730.583 633.796,730.583 633.799,730.583 633.796,730.586 630.735,731.949 630.735,734.375 630.734,734.378 628.599,732.897 625.273,734.375 625.271,734.375 625.271,734.372 627.341,732.017 625.271,730.586 625.267,730.583 "
   transform="matrix(7.253613,0,0,7.253613,-4387.0069,-5222.594)" /><polygon
   style="fill:#005aa2"
   id="polygon7"
   points="618.164,755.325 616.093,753.9 616.089,753.888 616.093,753.888 619.423,753.888 621.554,751.47 621.559,751.47 621.559,753.888 624.619,753.888 624.619,753.895 621.559,755.253 621.559,757.683 621.554,757.683 619.423,756.205 616.093,757.683 "
   transform="matrix(7.253613,0,0,7.253613,-4387.0069,-5222.594)" /><polygon
   style="fill:#005aa2"
   id="polygon9"
   points="627.147,763.813 627.143,763.813 625.011,762.328 621.681,763.813 621.678,763.813 621.678,763.799 623.75,761.454 621.678,760.018 625.011,760.018 627.14,757.592 627.147,757.592 627.147,760.018 630.205,760.018 630.208,760.018 630.205,760.018 627.147,761.383 "
   transform="matrix(7.253613,0,0,7.253613,-4387.0069,-5222.594)" /><polygon
   style="fill:#005aa2"
   id="polygon11"
   points="640.181,762.255 640.178,762.255 637.116,763.622 637.116,766.045 634.984,764.566 631.654,766.045 631.652,766.045 631.654,766.038 633.726,763.68 631.654,762.255 631.652,762.255 631.654,762.25 634.984,762.25 637.116,759.825 637.116,759.825 637.116,762.25 640.178,762.25 "
   transform="matrix(7.253613,0,0,7.253613,-4387.0069,-5222.594)" /><polygon
   style="fill:#005aa2"
   id="polygon13"
   points="643.081,759.885 646.411,759.885 648.542,757.456 648.542,757.456 648.546,757.46 648.546,759.885 651.607,759.885 651.61,759.885 651.607,759.885 648.546,761.25 648.546,763.672 648.542,763.679 646.411,762.195 643.084,763.679 643.081,763.672 643.081,763.667 645.153,761.316 643.081,759.885 643.08,759.885 "
   transform="matrix(7.253613,0,0,7.253613,-4387.0069,-5222.594)" /><polygon
   style="fill:#005aa2"
   id="polygon15"
   points="659.63,751.47 659.63,753.888 662.688,753.888 662.691,753.888 662.691,753.895 659.63,755.253 659.63,757.683 659.626,757.683 657.496,756.205 654.167,757.683 654.164,757.683 654.167,757.683 656.238,755.325 654.164,753.9 654.164,753.888 654.167,753.888 657.496,753.888 659.626,751.47 "
   transform="matrix(7.253613,0,0,7.253613,-4387.0069,-5222.594)" /><polygon
   style="fill:#005aa2"
   id="polygon17"
   points="641.442,728.674 639.31,727.192 635.98,728.67 635.98,728.668 638.052,726.309 635.98,724.882 635.978,724.879 635.98,724.879 639.31,724.879 641.442,722.454 641.446,722.451 641.446,722.458 641.446,724.879 644.507,724.879 641.446,726.244 641.446,728.67 "
   transform="matrix(7.253613,0,0,7.253613,-4387.0069,-5222.594)" /><polygon
   style="fill:#005aa2"
   id="polygon19"
   points="652.617,720 652.617,720.003 652.617,722.428 655.677,722.428 655.681,722.428 655.677,722.43 652.617,723.793 652.617,726.219 652.613,726.223 650.481,724.742 647.155,726.219 647.151,726.219 647.151,726.218 649.224,723.86 647.151,722.43 647.151,722.428 650.481,722.428 652.613,720 "
   transform="matrix(7.253613,0,0,7.253613,-4387.0069,-5222.594)" /><polygon
   style="fill:#005aa2"
   id="polygon21"
   points="662.355,722.451 662.355,722.458 662.355,724.879 665.416,724.879 665.417,724.879 665.416,724.879 662.355,726.244 662.355,728.67 662.355,728.674 660.222,727.192 656.892,728.67 656.892,728.668 658.965,726.309 656.892,724.882 656.891,724.879 656.892,724.879 660.222,724.879 662.355,722.454 "
   transform="matrix(7.253613,0,0,7.253613,-4387.0069,-5222.594)" /><polygon
   style="fill:#005aa2"
   id="polygon23"
   points="668.696,728.159 668.696,728.161 668.696,730.583 671.757,730.583 671.757,730.586 668.696,731.949 668.696,734.375 668.694,734.378 666.563,732.897 663.233,734.375 663.232,734.375 663.232,734.372 665.302,732.017 663.232,730.586 663.229,730.583 663.232,730.583 666.563,730.583 668.694,728.159 "
   transform="matrix(7.253613,0,0,7.253613,-4387.0069,-5222.594)" /><polygon
   style="fill:#005aa2"
   id="polygon25"
   points="604.803,749.387 608.465,736.767 641.568,736.767 637.906,749.387 "
   transform="matrix(7.253613,0,0,7.253613,-4387.0069,-5222.594)" /><polygon
   style="fill:#ffffff"
   id="polygon27"
   points="637.889,749.387 641.551,736.767 680.843,736.767 677.18,749.387 "
   transform="matrix(7.253613,0,0,7.253613,-4387.0069,-5222.594)" /><path
   style="fill:#e30041"
   inkscape:connector-curvature="0"
   id="path29"
   d="m 447.84532,145.07237 h 9.27737 c 7.44947,0 7.20284,4.22885 5.76663,9.20483 -1.45073,4.96873 -3.67758,9.21209 -11.14881,9.21209 h -9.26286 l 5.36767,-18.41692 z m 16.88641,56.44761 -4.09829,-28.53571 c 8.18933,-3.16258 12.18607,-10.00999 14.70308,-18.71432 3.57603,-12.10628 2.17608,-20.62202 -14.42744,-20.62202 h -8.62455 -13.41193 l -19.86039,67.93734 h 13.44095 l 7.78312,-26.70055 h 6.68783 l 3.47449,26.62801 h 14.33313 z" /><path
   style="fill:#e30041"
   inkscape:connector-curvature="0"
   id="path31"
   d="m 338.96134,163.48929 h -9.26287 l 5.38219,-18.40967 h 9.24835 c 7.47848,0 7.23911,4.22886 5.81015,9.19758 -1.48699,4.96147 -3.72836,9.21209 -11.17782,9.21209 m 9.18307,-29.84136 h -8.6463 -13.39743 l -19.86764,67.94459 h 13.41193 l 7.81214,-26.7078 h 8.63905 c 16.58901,0 22.95769,-8.50124 26.47569,-20.62203 3.56878,-12.09902 2.18334,-20.61476 -14.42744,-20.61476" /><path
   style="fill:#ffffff"
   inkscape:connector-curvature="0"
   id="path33"
   d="m 212.22621,152.71042 c 2.22686,-7.51474 5.89719,-8.54476 11.2286,-8.54476 5.31689,0 8.43595,1.03002 6.2381,8.54476 l -8.68257,29.72531 c -2.19059,7.52199 -5.89719,8.52299 -11.21409,8.52299 -5.3314,0 -8.42144,-1.001 -6.23085,-8.52299 l 8.66081,-29.72531 z m -21.84063,29.10875 c -4.91069,16.71232 3.0973,20.60751 16.08126,20.60751 12.97672,0 23.20431,-3.89519 28.07874,-20.60751 l 8.31989,-28.48494 c 4.88169,-16.71958 -3.08278,-20.62202 -16.0595,-20.62202 -12.98396,0 -23.24783,3.90244 -28.12951,20.62202 l -8.29088,28.48494 z" /><polygon
   style="fill:#ffffff"
   id="polygon35"
   points="612.88,743.737 610.441,743.737 609.721,746.197 613.06,746.197 612.597,747.781 607.417,747.781 610.148,738.424 615.195,738.424 614.732,740.005 611.53,740.005 610.9,742.157 613.344,742.157 "
   transform="matrix(7.253613,0,0,7.253613,-4387.0069,-5222.594)" /><path
   style="fill:#ffffff"
   inkscape:connector-curvature="0"
   id="path37"
   d="m 101.10811,133.64793 -14.159048,48.51216 c -1.893193,6.47748 0.326413,8.79138 6.803889,8.79138 6.499239,0 10.191329,-2.3139 12.070009,-8.79138 l 14.17356,-48.51216 h 13.37567 l -14.49998,49.66548 c -4.35942,14.94245 -14.67406,19.11327 -28.448667,19.11327 -13.774611,0 -21.557738,-4.17082 -17.191063,-19.11327 l 14.507226,-49.66548 h 13.368404 z" /><path
   style="fill:#e30041"
   inkscape:connector-curvature="0"
   id="path39"
   d="m 298.29758,151.49907 c -0.39894,-6.4122 -2.8144,-8.07327 -7.4422,-8.07327 -4.73661,0 -7.87743,1.76988 -9.21209,6.37592 -3.003,10.22034 25.68504,14.15905 19.49771,35.41214 -3.40194,11.6348 -13.27411,17.21282 -27.31711,17.21282 -10.8514,0 -17.93093,-4.67858 -17.60451,-18.01797 l 13.98496,-2.72011 c -0.85593,8.18933 3.45272,10.06077 7.40594,10.06077 4.68583,0 8.82765,-1.96573 10.29288,-7.04326 3.74286,-12.78812 -25.11201,-16.1538 -19.5775,-35.12925 3.39469,-11.64205 12.11353,-16.8574 25.93166,-16.8574 11.92494,0 17.50297,5.79564 17.04599,15.38492 l -13.00573,3.39469 z" /><path
   style="fill:#e30041"
   inkscape:connector-curvature="0"
   id="path41"
   d="m 386.26215,152.71042 c 2.18334,-7.51474 5.88993,-8.54476 11.20683,-8.54476 5.33141,0 8.41419,1.03002 6.21635,8.54476 l -8.67532,29.72531 c -2.19785,7.52199 -5.87543,8.52299 -11.20684,8.52299 -5.32415,0 -8.42869,-1.001 -6.23085,-8.52299 l 8.68983,-29.72531 z m -21.8769,29.10875 c -4.86717,16.71232 3.0973,20.60751 16.08126,20.60751 12.99122,0 23.22607,-3.89519 28.09325,-20.60751 l 8.31989,-28.48494 c 4.88893,-16.71958 -3.09004,-20.62202 -16.07401,-20.62202 -12.98396,0 -23.21156,3.90244 -28.115,20.62202 l -8.30539,28.48494 z" /><polygon
   style="fill:#e30041"
   id="polygon43"
   points="672.387,738.424 678.532,738.424 678.069,740.006 675.917,740.006 673.65,747.781 671.807,747.781 674.075,740.006 671.922,740.006 "
   transform="matrix(7.253613,0,0,7.253613,-4387.0069,-5222.594)" /><path
   style="fill:#ffffff"
   inkscape:connector-curvature="0"
   id="path45"
   d="m 156.88115,145.07237 h 9.28462 c 7.44946,0 7.20284,4.22885 5.75211,9.20483 -1.43621,4.96873 -3.67032,9.21209 -11.11978,9.21209 h -9.28463 l 5.36768,-18.41692 z m 16.8719,56.44761 -4.08379,-28.53571 c 8.21109,-3.16258 12.19333,-10.00999 14.71759,-18.71432 3.56152,-12.10628 2.18333,-20.62202 -14.43469,-20.62202 h -8.63906 -13.42643 l -19.83864,67.93734 h 13.40468 l 7.8194,-26.70055 h 6.68783 l 3.47448,26.62801 h 14.31863 z" /><polygon
   style="fill:#e30041"
   id="polygon47"
   points="678.959,749.387 682.511,736.767 695.93,736.767 692.377,749.387 "
   transform="matrix(7.253613,0,0,7.253613,-4387.0069,-5222.594)" /><rect
   style="fill:url(#linearGradient3166)"
   id="rect74"
   height="7.6459999"
   width="6.7709999"
   clip-path="url(#SVGID_2_)"
   y="740.04999"
   x="680.87701"
   transform="matrix(7.253613,0,0,7.253613,-4387.0069,-5222.594)" /><rect
   style="fill:url(#linearGradient3168)"
   id="rect105"
   height="7.6459999"
   width="5.5409999"
   clip-path="url(#SVGID_5_)"
   y="740.04999"
   x="687.35101"
   transform="matrix(7.253613,0,0,7.253613,-4387.0069,-5222.594)" />
</svg>